<svg width="58" height="58" viewBox="0 0 58 58" fill="none" xmlns="http://www.w3.org/2000/svg">
<g filter="url(#filter0_d_49_91)">
<path d="M47.9961 47.7223C47.852 47.714 47.7037 47.7066 47.5583 47.6989C47.8236 47.1231 47.4787 46.3137 46.8527 46.1613C45.0157 45.7132 43.1233 45.9451 41.2284 45.3812C38.1877 44.4763 35.3566 42.8234 32.7435 41.0342C27.582 37.4995 22.0697 30.9615 29.2075 26.3245C30.052 25.7763 29.8067 24.137 28.6557 24.2514C26.8644 24.4299 25.0702 24.5269 23.2736 24.6291C24.2241 24.0899 24.9952 22.8291 25.592 22.083C26.797 20.5762 28.1816 19.9738 30.0881 19.8577C31.2837 19.7849 31.4607 18.1985 30.3635 17.7889C30.1565 17.7116 29.9557 17.3937 29.761 17.2569C29.301 16.9336 28.8298 16.6816 28.32 16.4486C27.8485 16.2332 27.3661 16.0449 26.8826 15.859C29.2775 15.0165 30.7825 12.1083 33.6697 11.9803C34.7194 11.9338 35.1835 10.7301 34.4985 9.94465C33.7644 9.10294 33.2165 8.22855 32.609 7.3956C34.1132 7.32176 35.6142 7.39188 37.1184 7.63438C37.6298 7.71699 38.0652 6.95336 37.5037 6.70448C35.2532 5.70712 32.8053 5.59504 30.4099 5.22849C29.0386 5.01866 28.3409 6.62852 29.478 7.47767C30.3906 8.15923 30.9965 9.06681 31.6116 9.97945C30.6488 10.2764 29.7529 10.7285 28.8658 11.3904C27.5663 12.3601 25.9572 13.3707 25.0104 14.6967C24.6989 15.1331 24.9579 15.7472 25.3926 15.9812C25.4111 16.0916 25.4667 16.1947 25.5779 16.2595C26.1663 16.6024 26.7657 16.9251 27.3551 17.2664C27.4778 17.3374 27.8984 17.5961 28.2947 17.8627C26.8907 18.0718 25.6231 18.604 24.4964 19.6745C23.898 20.2429 23.4034 20.9273 22.8635 21.551C22.1743 22.3473 21.3951 22.8033 21.2528 23.9067C21.1797 24.4737 21.7465 24.8273 22.2091 24.8796C22.2902 24.8889 22.3665 24.869 22.4456 24.8655C22.0749 25.2538 22.2315 26.0385 22.9254 26.0783C23.8265 26.1301 24.7269 26.1803 25.6267 26.2377C21.339 30.4749 23.7626 36.3584 28.3325 40.7136C30.0058 42.3081 33.7814 45.2524 37.6807 47.1852C25.1607 46.3206 11.5723 43.7341 7.55865 30.3442C5.23113 22.5789 9.08815 14.1447 14.3499 8.64768C17.1246 5.74882 20.6777 3.83006 24.5306 2.9416C29.1222 1.88261 32.7406 4.00643 36.7464 5.83568C37.7611 6.2989 38.7635 5.12969 37.9587 4.23751C32.3261 -2.00644 22.6651 -0.551164 16.2884 3.46963C8.80021 8.1911 4.19685 17.148 4.00419 25.9837C3.80423 35.1637 10.7834 43.2505 18.7684 46.625C28.0957 50.5669 38.1222 50.2299 47.9961 49.6503C49.2165 49.5783 49.2178 47.7916 47.9961 47.7223Z" fill="#00B2A0"/>
<path d="M53.8096 44.1407C52.8862 41.9994 51.3165 40.1715 49.4915 38.5858C49.5096 34.9076 49.5544 31.2282 49.5229 27.5503C49.5218 27.4198 49.5067 27.2987 49.4819 27.1853C49.6137 25.8023 49.5119 24.4548 49.2754 23.1053C49.2772 23.1042 49.2793 23.1026 49.2811 23.1016C50.1395 22.8657 50.8349 22.1592 51.5152 21.6065C52.0611 21.1629 52.6121 20.7129 53.1267 20.2282C53.2311 20.1424 53.3295 20.0489 53.4256 19.9552C54.9143 18.4956 52.6555 16.2064 51.163 17.6531C50.9401 17.8691 50.702 18.0677 50.464 18.2654C50.3063 18.396 50.146 18.5238 49.9865 18.6518C49.9016 18.7195 49.8165 18.787 49.7312 18.8542C49.962 18.6717 49.5372 19.0043 49.5404 19.0019C49.2033 19.2635 48.8329 19.5137 48.4868 19.7886C48.2445 18.9419 47.938 18.0499 47.4739 17.3477C47.8548 17.166 48.221 16.9655 48.5481 16.7317C49.9079 15.7609 51.0999 14.0807 50.4491 12.3104C50.0664 11.2695 49.3323 10.5297 48.4113 9.95391C48.2087 9.82721 47.9829 9.71087 47.7605 9.59374C47.6287 9.35868 47.4817 9.13078 47.2982 8.92175C47.2102 8.82135 47.1212 8.74459 47.0327 8.66225C47.0666 8.38655 46.9045 8.08747 46.5639 8.10102C46.4211 8.10659 46.2811 8.10394 46.1404 8.10288C45.7778 7.98255 45.4184 7.98202 45.067 8.06994C43.9296 8.02133 42.8611 8.03541 41.8621 8.94433C41.1928 9.5531 40.8967 10.3369 40.8897 11.1765C39.9522 13.4358 39.6985 16.2215 42.0968 17.5201C42.487 17.7315 42.9105 17.8608 43.3443 17.9501C43.0945 18.8149 42.9063 19.6861 42.7564 20.5645C41.198 20.9137 39.5813 21.815 38.2656 22.3608C36.3346 22.9727 37.1379 26.0092 39.103 25.4514C40.2143 25.1359 41.282 24.6798 42.3536 24.2474C42.3051 25.095 42.2779 25.9521 42.2672 26.8214C42.2649 27.0108 42.3197 27.2217 42.4038 27.4212C42.126 28.2871 41.8389 29.2695 41.6517 30.2348C41.4026 31.1155 41.1494 31.9955 40.8764 32.8694C38.2358 31.4016 34.7477 29.8693 32.4812 31.3912C32.4747 31.3822 32.4671 31.3737 32.4604 31.3647C31.6354 30.2478 29.9089 31.1899 30.5821 32.4821C34.8103 40.5991 43.1974 45.1509 51.8277 46.7642C53.4271 47.0627 54.4424 45.608 53.8096 44.1407ZM34.9286 34.2768C35.2246 34.3432 35.5337 34.4441 35.8373 34.5294C35.7997 34.7669 35.8357 35.0149 35.9621 35.2309C35.9905 35.2792 36.0271 35.3228 36.0563 35.3703C35.6749 35.0147 35.2948 34.6572 34.9286 34.2768ZM43.5994 34.4638C43.6845 34.4088 43.7657 34.3406 43.838 34.2518C44.3807 33.5886 44.5091 32.8279 44.6169 32.0239C45.0994 30.9931 45.5197 29.941 45.8713 28.8682C46.0681 28.8956 46.2697 28.911 46.4694 28.9312C46.46 31.3862 46.4701 33.8412 46.4869 36.2965C45.522 35.6402 44.5446 35.0311 43.5994 34.4638Z" fill="#00B2A0"/>
</g>
<defs>
<filter id="filter0_d_49_91" x="0" y="0" width="58" height="58" filterUnits="userSpaceOnUse" color-interpolation-filters="sRGB">
<feFlood flood-opacity="0" result="BackgroundImageFix"/>
<feColorMatrix in="SourceAlpha" type="matrix" values="0 0 0 0 0 0 0 0 0 0 0 0 0 0 0 0 0 0 127 0" result="hardAlpha"/>
<feOffset dy="4"/>
<feGaussianBlur stdDeviation="2"/>
<feComposite in2="hardAlpha" operator="out"/>
<feColorMatrix type="matrix" values="0 0 0 0 0 0 0 0 0 0 0 0 0 0 0 0 0 0 0.25 0"/>
<feBlend mode="normal" in2="BackgroundImageFix" result="effect1_dropShadow_49_91"/>
<feBlend mode="normal" in="SourceGraphic" in2="effect1_dropShadow_49_91" result="shape"/>
</filter>
</defs>
</svg>
